<svg id="Layer_1" data-name="Layer 1" xmlns="http://www.w3.org/2000/svg" viewBox="0 0 612 792"><defs><style>.cls-1{fill:#fff;}</style></defs><title>Artboard 1</title><path class="cls-1" d="M166.9,330.19a15.67,15.67,0,0,0,15.94-16,16,16,0,0,0-31.91.06A15.66,15.66,0,0,0,166.9,330.19Zm-.21-25.4a9.56,9.56,0,1,1-9.36,9.31A9.31,9.31,0,0,1,166.69,304.79Z"/><path class="cls-1" d="M328.88,521.27c-2.53-1.39-5.41-2.15-7.9-3.6a4.48,4.48,0,0,1-1.75-3.43c.05-1.74,1.71-2.43,3.33-2.24a33.67,33.67,0,0,1,5.56,1.21c1.77.52,2.44-.52,3-1.8s.73-2.53-.82-3.41a14.12,14.12,0,0,0-9.32-2c-4.8.73-8.46,4-8.89,7.86-.52,4.79,1.62,8.11,6.65,10.15,2,.81,4.09,1.38,6.1,2.15,1.62.62,3.22,1.58,2.77,3.58s-2.37,2.43-4.2,2.2a16.78,16.78,0,0,1-3.82-1c-2.46-.94-3.26.68-4.05,2.45s.21,2.72,1.68,3.21c2,.67,4.13,1.16,5.52,1.53,4.13-.33,7.12-1.5,9.42-4C335.86,530.17,334.39,524.3,328.88,521.27Z"/><path class="cls-1" d="M161.55,409.79c.5-1.93.88-3.89,1.54-5.76.58-1.65,1.71-3.09,3.69-2.66s2.66,2,2.54,3.81a25.36,25.36,0,0,1-.78,4.89c-.42,1.53,0,2.39,1.42,2.93,2.77,1,3.69.63,4.57-2.29.43-1.42.7-2.89,1-4.34l-.25,0c0-.5,0-1,0-1.5-.46-5.51-4-9.68-8.64-10.17-4.92-.52-8,1.91-9.8,7.93-.7,2.3-.95,4.77-1.89,6.95-.44,1-2.19,2.23-3.1,2.06s-2.05-1.79-2.37-3a9,9,0,0,1,.32-4.16c.59-2.51.09-3.43-2.7-4.22-2.29-.64-2.66,1-3,2.6-.21.89-.43,1.78-.57,2.69-.85,5.41,2.74,11.39,7.41,12.38C156,419,160,415.9,161.55,409.79Z"/><path class="cls-1" d="M361.53,498.67c-.62-1.77-1.72-2.16-3.28-1.6-4.78,1.69-9.55,3.43-14.31,5.17-1.85.68-2,1.89-1.26,3.59s1.38,2.87,3.46,2.07c1.71-.66,3.44-1.24,5.16-1.87,6-2.23,6-2.23,7.32,4.68-2.81,1-5.52,2-8.27,2.86-2.47.79-1.69,2.39-1.16,4s1.62,2.14,3.29,1.51c1.94-.74,3.93-1.35,5.88-2.07,2.85-1.05,3-1,3.79,2,.15.56.53,1.17.41,1.67-.17.74-.53,1.77-1.1,2-2.9,1.24-5.86,2.34-8.85,3.33-1.72.57-2,1.63-1.44,3.08s.71,3.13,3,2.34c4.71-1.63,9.4-3.32,14.16-4.8,2.33-.72,2.53-2.12,1.85-4C367.27,514.63,364.35,506.66,361.53,498.67Z"/><path class="cls-1" d="M171.64,278.25q10.18,8,20.27,16.22c1.77,1.43,2.83.56,3.92-.83s2.27-2.62.25-4.18c-1.85-1.42-3.69-2.85-5.41-4.42-.61-.55-1.4-1.78-1.17-2.23.63-1.24,1.38-2.69,3.4-2.16,2.65.69,5.36,1.14,8,1.7,3.32.69,4.22.31,6.06-2.65,1-1.65.65-2.54-1.31-3-2.68-.57-5.35-1.22-8.06-1.6-1.93-.28-2.64-1.14-2.23-2.8,0-4.45-2.31-8.16-5.87-9.53a9.73,9.73,0,0,0-11.31,2.77c-2.4,2.76-4.56,5.73-6.94,8.52C169.91,275.72,169.94,276.91,171.64,278.25Zm11.59-8.73a4.62,4.62,0,0,1,3.85-.39c1.11.5,1.74,2.05,3,3.63-2,2.49-3.65,4.65-5.42,6.73-.14.16-1.06-.17-1.48-.46C178.1,275.63,178.07,273,183.23,269.53Z"/><path class="cls-1" d="M394.94,478c-.84-1.24-1.92-1.58-3.19-.68-3.13,2.21-6.41,4.24-9.3,6.72A15.33,15.33,0,0,0,378.39,501,15.82,15.82,0,0,0,392.87,511a9.77,9.77,0,0,0,1.25,0c6.38-.83,11-4.86,15.67-8.73.4-.33.35-1.8,0-2.38C404.88,492.57,399.9,485.29,394.94,478ZM401,501.59c-2.44,1.28-4.9,2.54-6.21,3.22-5.06-.09-9-2.93-10.23-6.39-1.56-4.3-.71-7.68,2.64-10.54,4.2-3.58,4.32-3.62,7.54.72,2.37,3.19,4.52,6.55,6.85,9.78C402.6,499.76,402.57,500.78,401,501.59Z"/><path class="cls-1" d="M449.94,450.83c-4.4.07-8.8.15-13.2.33a7.6,7.6,0,0,1-5.3-1.6c-2.5-1.91-5.28-3.44-7.9-5.2-2.06-1.38-2.72.2-3.66,1.51s-1.55,2.53.32,3.7c2.81,1.76,5.63,3.55,8.26,5.56a10,10,0,0,1,2.83,3.59c2,4.2,3.75,8.5,5.59,12.76.46,1.06.94,2.12,2.34,1.15a5.48,5.48,0,0,0,1.66-6.65c-1.23-2.77-2.39-5.58-3.69-8.65,3.54-.21,6.66-.63,9.76-.5,2.58.11,3.77-1.2,4.76-3.17C452.79,451.53,452.36,450.79,449.94,450.83Z"/><path class="cls-1" d="M189.45,440.78c-.89-1.7-1.82-2.76-3.86-1.66s-4.31,2.17-6.41,3.34a1.7,1.7,0,0,1-2.67-.73c-.85-1.42-1-2.64.14-4.05,1.55-1.84,2.76-4,4.35-5.77,1.95-2.2,2.15-4.26.48-6.71-1.3-1.91-2.1-2-3.45-.1-1.57,2.25-3.17,4.49-4.61,6.82-.89,1.44-1.64,2-3.34,1a22.52,22.52,0,0,0-4.67-1.52c-6.4.29-11.07,6.74-8.75,12.69,1.57,4,3.72,7.8,5.67,11.65.62,1.23,1.55,1.53,2.9.82,7.74-4,15.48-8.07,23.28-12C190.52,443.56,190.31,442.44,189.45,440.78Zm-17.11,4.16a15.47,15.47,0,0,1-3.15,2.67c-1.19.59-3.48,1.25-3.86.76-1.54-2-2.53-4.36-4-7.09,1.15-1.26,2-2.6,3.15-3.33a3.25,3.25,0,0,1,4.45,1,55.44,55.44,0,0,1,3.25,5.57C172.27,444.62,172.39,444.89,172.34,444.94Z"/><path class="cls-1" d="M209.6,466.91c-3.45-3.84-6.91-7.66-10.29-11.56-1.33-1.54-2.35-1-3.53.12s-2.37,2-.81,3.68,3.05,3.3,4.5,5c3.29,3.89,4,2.8-.58,6.93-1.26,1.12-2.1.94-3.09-.25-1.44-1.73-3-3.34-4.43-5.08s-2.58-1.15-4,0-1.64,2.34-.3,3.77c1.59,1.7,3.07,3.51,4.64,5.23.92,1,.93,1.87-.17,2.73a13.76,13.76,0,0,0-1.67,1.5c-1.28,1.39-2.33,1.16-3.49-.22-1.82-2.16-3.84-4.16-5.61-6.36-1.33-1.65-2.43-1.57-3.91-.25s-2,2.26-.48,3.91c3.33,3.61,6.5,7.36,9.77,11a14.94,14.94,0,0,0,1.73,1.43,18.43,18.43,0,0,0,1.78-1.21q9.87-8.63,19.72-17.28C210.58,469.06,210.65,468.07,209.6,466.91Z"/><path class="cls-1" d="M319.92,358.45c-11.13-11.25-22.36-22.41-33.55-33.6-4.18-4.18-8.35-8.38-12.58-12.51-2.58-2.52-4.28-2-5.3,1.46-.12.4-.2.81-.29,1.21-.79,3.74-1.53,7.49-2.36,11.23-2.85,12.82-5.84,25.61-8.5,38.46-.56,2.7-1.63,3.27-4.11,3.26-14.08-.07-28.16,0-42.23,0-4.73,0-4.73.06-4.74,4.81,0,3.39,0,3.5,3.48,3.51q20.62.05,41.23.05c1.05,0,2.11.09,3.45.15-.15,1.3-.17,2.37-.4,3.39-1.1,4.95-2.26,9.88-3.4,14.82-1.77,7.7-3.6,15.38-5.25,23.1a3.61,3.61,0,0,0,1,3c2.65,2,7.14.22,7.85-2.95q4-18,8-36,5.25-23.86,10.47-47.73c.61-2.79,1.33-5.55,2-8.37.48.19.67.21.78.32q11.69,11.62,23.38,23.24c1,1,.84,1.78-.11,2.7-2.09,2-4.15,4.09-6.16,6.21a22.32,22.32,0,0,0-1.89,2.94c5.46-.53,10.62,1.81,14.33-3.23a2.5,2.5,0,0,1,2.38.08c2.3,2,4.45,4.25,6.59,6.47a26.31,26.31,0,0,1,2,2.69l-.38.68h-2.94q-17.49,0-35,0c-5.73,0-5.61.05-6.75,5.66-.46,2.25.23,2.86,2.31,2.82,3.75-.06,7.5,0,11.25,0a2.33,2.33,0,0,1,2.61,2c3.39,11.61,14.6,16.57,25.31,13.14C326.64,387,330.54,369.19,319.92,358.45Zm-13.77,25.68c-5.23,0-9.35-2.84-10.54-7.61h21C315.61,381.28,311.64,384.08,306.15,384.13Z"/><path class="cls-1" d="M171.39,360.38c.18-2.75-.27-3.19-3.23-3.47-2-.19-3.95-.6-5.93-.77-1.66-.14-2.12-1-1.9-2.49.29-2,.51-4,.8-5.93.38-2.59-.21-3.35-2.68-3.73-2.31-.35-3.2.71-3.31,2.88a34.86,34.86,0,0,1-.53,4.46c-.71,4-.74,4-4.83,3.4-.16,0-.33-.07-.49-.08-1.85-.12-2.63-.87-2.23-2.91.56-2.85.8-5.77,1.2-8.65.35-2.54-1.62-2.5-3.19-2.85a2.05,2.05,0,0,0-2.8,2q-1,7.55-1.93,15.1c-.2,1.57.39,2.57,2.07,2.78l24.15,3C170.79,363.42,171.21,363.11,171.39,360.38Z"/><path class="cls-1" d="M236,492.05c-2.42,4.14-5.22,8.07-8.23,12.65-.25-1.18-.35-1.58-.41-2-1.25-7.38-2.47-14.76-3.8-22.12a3,3,0,0,0-1.45-2c-.37-.17-1.46.63-1.86,1.24-4.9,7.33-9.71,14.72-14.58,22.07-1.11,1.68-.56,2.77,1,3.66,1.41.79,2.71,2.16,4.14-.12,2.16-3.45,4.48-6.81,6.75-10.2.48-.72,1-1.39,2-2.71.65,3.47,1.19,6.19,1.68,8.92.88,4.91,1.68,9.83,2.63,14.73a2.57,2.57,0,0,0,1.4,1.78,2.46,2.46,0,0,0,2-1q7.49-11.2,14.78-22.54a2.81,2.81,0,0,0,0-2.64C239.31,489.4,237.94,488.66,236,492.05Z"/><path class="cls-1" d="M296.43,506.91c-3-.25-3.8.08-4,2.61-.74,8.37-1.38,16.75-2.05,25.12-.19,2.62.3,3.06,3,3.39,2.21.27,3.17-.46,3.34-2.76.62-8.38,1.38-16.75,2.12-25.12C299,508.32,298.6,507.09,296.43,506.91Z"/><path class="cls-1" d="M259.1,499.95a13.26,13.26,0,0,0-3.48.07,3.83,3.83,0,0,0-2.39,1.77,83,83,0,0,0-2.81,9,2.48,2.48,0,0,0,.82,2.21,46.21,46.21,0,0,0,7.13,2.21c2.23.49,2.29-1.63,2.56-2.92.15-.7-.71-1.67-1.23-2.44a27.24,27.24,0,0,0-1.75-2.15c.89-.52,1.8-1.51,2.68-1.49a9,9,0,0,1,8.33,5.4,9.05,9.05,0,0,1-1.39,10.28c-2.49,2.93-5.75,4.48-9.57,3.07a17,17,0,0,1-5.25-3.52c-2-1.81-3.24-.08-4.62.67s-1.1,2-.27,3.17a16.08,16.08,0,0,0,20.29,4.8c6.94-3.57,10.41-12.29,7.73-19.39S267.41,499.86,259.1,499.95Z"/><path class="cls-1" d="M346.61,376.34c1.56,0,2.47.33,2.72,2.08.29,2,.92,3.88,1.37,5.82,2.49,10.84,5.26,21.63,7.31,32.56,1,5.11,2.41,4.68,5.91,4.63,2.54,0,3.24-1,2.7-3.55q-2.33-11.1-4.75-22.17c-1.36-6.23-2.76-12.45-4.25-19.16,1.7-.08,2.92-.18,4.15-.18,13.82,0,27.64,0,41.46,0,2.34,0,3.47-.71,3.14-3.16a11.44,11.44,0,0,1,0-1.5c0-3.66-.13-3.79-3.8-3.79H338.62c-5.73,0-5.64,0-5.79,5.79-.05,2,.62,2.69,2.54,2.66C339.12,376.31,342.87,376.41,346.61,376.34Z"/><path class="cls-1" d="M314.6,336.24c-3.87,3.87-3.87,3.22.06,7.29,2.13,2.21,2.47,2.22,4.62.07q8.06-8,16.08-16.08c.62-.62,1.29-1.19,2.08-1.91l.09.16v0a4.34,4.34,0,0,1,.49,1c2.09,9.58,4.19,19.16,6.23,28.75,1.23,5.8,1.19,5.74,7,5.7,2.16,0,2.82-.74,2.34-2.86-1.44-6.32-2.75-12.67-4.14-19-1.84-8.37-3.61-16.75-5.59-25.08-1-4.2-2.66-4.54-5.72-1.49Z"/><path class="cls-1" d="M463.93,416.71c-7-2.36-14-4.73-20.89-7.33-6.5-2.45-5.47-2.3-7.32,3.23-1.14,3.41-2.35,7-2.39,10.55-.07,6.23,6.56,9.43,11.73,6l1.73-1.11c.3.52.53.85.7,1.2,1.52,3.16,3.76,5.28,7.53,5.08a8.27,8.27,0,0,0,7.7-5.75c1.08-2.78,1.93-5.65,3-8.43C466.51,418.22,465.82,417.35,463.93,416.71Zm-19.8,7c-.49.62-2.54.7-3.32.19a4.24,4.24,0,0,1-1.6-3.23c.09-1.75.9-3.47,1.49-5.52a26.13,26.13,0,0,1,2.94,1c1.18.6,3.36,1.66,3.27,1.95A17.45,17.45,0,0,1,444.13,423.66Zm11,4.07a4,4,0,0,1-3.42-1.32c-1.7-2.43-.12-4.7,1-7.18l6.29,2.23C458.09,424,458.2,427,455.15,427.74Z"/><path class="cls-1" d="M331.61,239.15c1.88.23,3.47.3,3.81-2.24.36-2.71,1-5.38,1.51-8.07,1.1-5.79,2.18-11.58,3.3-17.36.53-2.75-1.63-2.56-3.21-3s-2.75-.12-3.08,1.76c-.4,2.29-.89,4.56-1.33,6.84l-3.73,19.05C328.55,238.26,329.77,238.92,331.61,239.15Z"/><path class="cls-1" d="M306,174.39c-108.78,0-197.29,88.5-197.29,197.29S197.22,569,306,569s197.29-88.5,197.29-197.29S414.78,174.39,306,174.39ZM502.32,372.23c0,109-89.52,196.23-196.2,195.75C198,568.17,108.41,480.57,109.7,370c1.25-107.85,87.47-196,198.86-194.66C416.53,176.66,502.36,263.76,502.32,372.23Z"/><path class="cls-1" d="M265.28,239.74c.25,1,1.3,1.9,1.84,2.65,6.08-1.51,11.41-2.8,16.73-4.17,1.61-.41,1.69-1.67,1.25-3s-.65-3.15-2.82-2.73c-2.37.45-4.72,1-7.07,1.48-4.43,1-4.39,1-5.33-3.52-.28-1.35.08-2,1.46-2.27,2.2-.45,4.36-1.08,6.54-1.6,1.6-.38,2.92-.93,2.29-3-.56-1.86-1.13-3.57-3.72-2.75a38,38,0,0,1-4.37,1c-4.26.81-4.21.78-5.36-3.36-.45-1.62,0-2.22,1.64-2.53,3-.58,6-1.37,9-2.12,1.67-.42,2.34-1.41,1.71-3.16-.54-1.49-.75-3.14-3.11-2.51-4.9,1.3-9.83,2.49-14.76,3.64-1.59.37-2,1.18-1.68,2.69C261.41,222.9,263.27,231.34,265.28,239.74Z"/><path class="cls-1" d="M296.22,215.32c.4,4.12,3.42,6.07,6.7,7.72,1.41.71,2.88,1.31,4.27,2.05,1.62.87,2.59,2.21,2,4.11-.66,2.06-2.47,2.12-4.14,1.77a15.45,15.45,0,0,1-4.13-1.62c-1.69-.92-2.87-.87-3.94.93s-1.32,3.42.77,4.38c2.6,1.2,5.34,2.07,8,3.07,2.49-.83,4.8-1.18,6.65-2.29,5.72-3.44,5.66-11.16-.1-14.9-2.57-1.67-5.51-2.76-8.07-4.44-.9-.59-1.88-2.48-1.55-3.16A4.17,4.17,0,0,1,305.9,211a11,11,0,0,1,4.86,1.6c2.16,1.23,3-.06,4-1.54,1.06-1.64.67-3-1-3.63-2.39-.91-4.84-2-7.33-2.2C300,204.77,295.63,209.24,296.22,215.32Z"/><path class="cls-1" d="M430.12,317c.65,1.82,1.63,2.65,3.57,1.87a53,53,0,0,1,5.81-2.24c1-.28,2.7-.29,3.22.32a2.76,2.76,0,0,1-.19,4c-1.78,1.75-3.28,3.8-5.14,5.45-2.24,2-2.49,4-1.19,6.61,1.06,2.1,1.73,2.31,3.39.49,1.79-2,3.6-3.94,5.23-6,1.19-1.54,2.09-1.84,3.85-.6a8.85,8.85,0,0,0,9.69.59c3.33-1.74,4.82-4.68,5.12-8.59a11.36,11.36,0,0,0-.39-2.46c-1.41-3.82-2.93-7.6-4.36-11.42-.6-1.6-1.44-1.9-3.07-1.28q-12.09,4.67-24.27,9.13C428.91,313.74,429.48,315.2,430.12,317Zm17.42-2.43a12.36,12.36,0,0,1,3.1-2.25c1.4-.49,3.92-1.06,4.33-.47,1.28,1.84,1.79,4.21,2.59,6.38-.14,2.16-1.09,3.5-3,4a3.78,3.78,0,0,1-4.66-1.94,56,56,0,0,1-2.21-5.29C447.6,314.85,447.49,314.58,447.54,314.54Z"/><path class="cls-1" d="M229.91,256.81c.8,1.53,1.85,1.81,3.26,1.05,3-1.61,6.07-3.11,8.95-4.92a15,15,0,0,0,7.34-11.83c.05-10.89-8.67-18.57-18-16.34-4.72,1.13-9,3.94-13.46,6.19-.46.23-.65,2-.28,2.7C221.73,241.41,225.87,249.09,229.91,256.81Zm-1.05-25.57a9.47,9.47,0,0,1,12.68,4.32c2.51,4.65,1.18,9.59-3.38,12.54-4.16,2.69-4.17,2.7-6.51-1.62s-4.55-8.43-7-12.89C226.27,232.69,227.52,231.88,228.86,231.24Z"/><path class="cls-1" d="M459.35,344c-2.84,1.36-4.2,3.91-5.24,6.69a36.53,36.53,0,0,1-2.24,5.78,4,4,0,0,1-3.09,1.79,3.71,3.71,0,0,1-2.5-2.56,15.33,15.33,0,0,1,1-5.74c.6-1.79.59-3-1.32-3.85s-3.45-.85-4.23,1.37c-.71,2-1.28,4.07-1.91,6.11l.41.12c0,.42,0,.83,0,1.25.43,6,4.45,10.28,9.51,10.25,3.55,0,7.12-3,8.64-7.18a41.63,41.63,0,0,1,2.31-6.29,4.38,4.38,0,0,1,3.28-1.95c1.65.05,2.48,1.63,2.25,3.31a44.39,44.39,0,0,1-1.17,5.06c-.62,2.36,1.3,2.76,2.71,3.49s2.27-.1,2.86-1.41a14.52,14.52,0,0,0,.72-11.15A8.64,8.64,0,0,0,459.35,344Z"/><path class="cls-1" d="M368.88,250.19c3.94.11,3.94.09,5.48-3.59.86-2.07,1.78-4.12,2.67-6.17.55-1.27.36-2.21-1.07-2.79-1.92-.78-3.8-1.69-5.7-2.51-1.48-.64-2.43,0-2.92,1.41s-1.33,2.59.58,3.65a3,3,0,0,1,1.44,2.23c-.11,1.69-1.55,1.7-2.85,1.44-3.78-.76-6.67-2.8-7.82-6.54a9.45,9.45,0,0,1,2.36-9.93c4.47-4.52,10.95-3.9,14.8,1.56,1.66,2.36,3.15.88,4.73.22s1.25-1.75.67-2.9c-3.21-6.41-11.74-9.62-19.16-7.21-6.7,2.17-11.57,10.11-10.4,16.95C353.21,244.83,359.37,249.92,368.88,250.19Z"/><path class="cls-1" d="M412.83,288.1c3,4.42,6.07,8.74,9.14,13.08,1.17,1.66,2.37,1,3.61.06s2.35-1.69,1.09-3.4c-1.38-1.87-2.68-3.8-4-5.72-2.86-4.12-2.86-4.12,1.48-6.8.07,0,.15-.14.21-.13.83.15,2,0,2.41.53a49.16,49.16,0,0,1,4.08,5.66c1.09,1.72,2.12,2,3.84.74s2.1-2.39.69-4.06c-.7-.82-1.26-1.75-1.9-2.63-3.52-4.87-3.46-5.07,2.6-8.1,2.16,3,4.3,6,6.35,9,1.1,1.61,2.25,1.3,3.57.36s2.21-1.83,1.05-3.46q-4.4-6.2-8.76-12.43c-.91-1.31-1.93-1.37-3.17-.49-7.27,5.12-14.57,10.19-21.79,15.39A2.51,2.51,0,0,0,412.83,288.1Z"/><path class="cls-1" d="M384.78,261.23c1.83,1.56,3,1.14,4.32-.54,2.64-3.32,5.42-6.54,8.07-9.86a9.81,9.81,0,0,0,1-2.22l1,.86c.08.64.2,1.29.23,1.94.35,7.16.65,14.31,1.09,21.47.05.85.8,1.67,1.23,2.5a8,8,0,0,0,2.2-1.32c5.58-6.62,11.07-13.32,16.64-20,1.46-1.73.66-2.77-.74-3.91s-2.52-1.78-3.94,0c-2.56,3.28-5.31,6.42-7.91,9.67a12.52,12.52,0,0,0-1.21,2.45l-1.15-.85c-.07-1-.16-1.92-.22-2.88-.39-6.65-.72-13.31-1.2-20-.07-.92-.88-1.78-1.35-2.67a8.22,8.22,0,0,0-2.19,1.34c-5.47,6.5-10.83,13.09-16.32,19.57C382.83,258.69,383.08,259.78,384.78,261.23Z"/><path class="cls-1" d="M306,165.39c-113.75,0-206.29,92.54-206.29,206.29S192.25,578,306,578s206.29-92.54,206.29-206.29S419.75,165.39,306,165.39ZM306,569c-108.78,0-197.29-88.5-197.29-197.29S197.22,174.39,306,174.39s197.29,88.5,197.29,197.29S414.78,569,306,569Z"/></svg>